<svg width="190" height="190" viewBox="0 0 190 190" fill="none" xmlns="http://www.w3.org/2000/svg">
<path d="M168.995 44.2613L161.994 49.4727L160.173 47.0253C159.809 46.5377 159.594 46.0727 159.527 45.6304C159.458 45.1898 159.507 44.7869 159.674 44.4215C159.839 44.0579 160.092 43.7489 160.434 43.4944C160.735 43.2705 161.023 43.1391 161.299 43.1003C161.573 43.0593 161.831 43.0829 162.074 43.1713C162.315 43.2574 162.538 43.3803 162.742 43.5401L162.81 43.4892C162.664 43.2649 162.579 42.9935 162.555 42.6753C162.53 42.357 162.591 42.0299 162.738 41.6941C162.885 41.3582 163.143 41.0529 163.512 40.7781C163.863 40.5168 164.238 40.3616 164.637 40.3125C165.036 40.2633 165.445 40.3497 165.866 40.5717C166.286 40.7937 166.701 41.1804 167.112 41.7318L168.995 44.2613ZM167.612 43.9734L166.36 42.2917C165.948 41.7379 165.548 41.4245 165.161 41.3516C164.769 41.278 164.42 41.3558 164.112 41.5848C163.875 41.7612 163.702 41.9845 163.591 42.2545C163.478 42.5263 163.444 42.8188 163.49 43.132C163.533 43.4469 163.668 43.7571 163.896 44.0624L165.178 45.7852L167.612 43.9734ZM164.44 46.3348L163.269 44.7625C163.079 44.5073 162.858 44.3144 162.605 44.184C162.35 44.0512 162.087 43.9923 161.815 44.0073C161.541 44.0199 161.281 44.1179 161.035 44.3011C160.727 44.5301 160.546 44.8315 160.491 45.2051C160.434 45.5805 160.578 46.0006 160.925 46.4655L162.115 48.0652L164.44 46.3348Z" fill="white"/>
<path d="M159.544 32.6653L153.508 38.9679L149.704 35.3247L150.352 34.6476L153.393 37.5599L155.433 35.4302L152.589 32.7067L153.238 32.0296L156.081 34.7532L158.133 32.6113L155.043 29.6519L155.691 28.9748L159.544 32.6653Z" fill="white"/>
<path d="M144.314 29.5128L143.787 30.2883L138.373 26.6095L138.9 25.8341L141.17 27.3765L145.548 20.9334L146.422 21.5274L142.044 27.9704L144.314 29.5128Z" fill="white"/>
<path d="M135.252 14.7754L136.262 15.2307L129.755 21.8706L128.76 21.4224L129.424 12.1491L130.435 12.6044L129.794 20.3737L129.856 20.4017L135.252 14.7754ZM133.478 17.7154L129.407 15.8805L129.792 15.0258L133.864 16.8607L133.478 17.7154Z" fill="white"/>
<path d="M106.322 10.269L106.46 9.34167L110.237 9.90168L110.099 10.829L106.322 10.269Z" fill="white"/>
<path d="M87.567 5.55119L88.6342 14.213L85.6059 14.5861C85.0025 14.6604 84.492 14.6174 84.0744 14.457C83.6571 14.2995 83.3311 14.0577 83.0963 13.7317C82.8618 13.4085 82.7185 13.0354 82.6664 12.6125C82.6206 12.2403 82.649 11.9248 82.7516 11.666C82.8514 11.4075 82.9998 11.1946 83.1967 11.0272C83.3908 10.8602 83.6078 10.7276 83.8476 10.6293L83.8371 10.5447C83.57 10.5605 83.2921 10.5003 83.0034 10.3641C82.7147 10.2279 82.4607 10.013 82.2413 9.71948C82.0219 9.42592 81.8841 9.05075 81.8278 8.59397C81.7744 8.15976 81.8249 7.75709 81.9796 7.38596C82.1342 7.01483 82.4119 6.70154 82.8127 6.44607C83.2134 6.19061 83.7549 6.02084 84.4373 5.93678L87.567 5.55119ZM86.6328 6.61088L84.5519 6.86724C83.8668 6.95166 83.3967 7.1441 83.1418 7.44457C82.8843 7.74821 82.7791 8.09036 82.826 8.471C82.8621 8.76424 82.9702 9.02571 83.1502 9.25543C83.3305 9.48796 83.5681 9.66192 83.8628 9.77732C84.1579 9.89553 84.4943 9.93137 84.8722 9.88482L87.0038 9.6222L86.6328 6.61088ZM87.1163 10.5357L85.1708 10.7754C84.855 10.8143 84.5779 10.9115 84.3394 11.0668C84.0981 11.2225 83.9166 11.4223 83.795 11.6663C83.6705 11.9106 83.627 12.185 83.6646 12.4895C83.7115 12.8702 83.8837 13.1767 84.1814 13.4091C84.4795 13.6443 84.9161 13.7265 85.4913 13.6556L87.4707 13.4117L87.1163 10.5357Z" fill="white"/>
<path d="M72.8145 8.02979L75.3066 16.3937L70.2589 17.8977L69.9912 16.9993L74.0261 15.797L73.184 12.9709L69.4105 14.0953L69.1428 13.1968L72.9163 12.0724L72.0694 9.23004L67.9691 10.4518L67.7014 9.55333L72.8145 8.02979Z" fill="white"/>
<path d="M62.5421 19.7076L62.9554 20.5491L57.0805 23.435L56.6671 22.5935L59.1303 21.3836L55.6958 14.3918L56.6444 13.9259L60.0789 20.9176L62.5421 19.7076Z" fill="white"/>
<path d="M45.2513 20.295L46.1466 19.6422L48.6991 28.5819L47.8177 29.2247L40.0865 24.061L40.9818 23.4082L47.4174 27.8078L47.4725 27.7676L45.2513 20.295ZM46.9293 23.2906L43.3208 25.9218L42.7685 25.1643L46.377 22.5331L46.9293 23.2906Z" fill="white"/>
<path d="M27.0266 43.2098L26.2886 42.6316L28.6433 39.626L29.3813 40.2042L27.0266 43.2098Z" fill="white"/>
<path d="M13.6501 57.1773L21.7061 60.5338L20.5326 63.3502C20.2988 63.9114 20.009 64.3339 19.663 64.6175C19.3197 64.9023 18.9483 65.0661 18.5488 65.1089C18.152 65.1528 17.7569 65.0929 17.3635 64.929C17.0174 64.7848 16.7572 64.604 16.583 64.3868C16.4078 64.1722 16.2961 63.938 16.248 63.684C16.1988 63.4327 16.1909 63.1786 16.2241 62.9216L16.1454 62.8888C16.027 63.1287 15.8372 63.3405 15.576 63.5241C15.3149 63.7076 15.0025 63.8222 14.6389 63.8676C14.2752 63.9131 13.881 63.8473 13.4562 63.6703C13.0523 63.5021 12.7274 63.2589 12.4813 62.941C12.2352 62.623 12.1003 62.2267 12.0764 61.7521C12.0526 61.2774 12.1729 60.7228 12.4373 60.0882L13.6501 57.1773ZM14.109 58.5134L13.3027 60.4487C13.0372 61.086 12.972 61.5897 13.107 61.9599C13.2436 62.3338 13.4889 62.5945 13.8429 62.742C14.1157 62.8556 14.3964 62.891 14.6851 62.8482C14.9764 62.8064 15.245 62.686 15.4911 62.4869C15.7398 62.2889 15.9373 62.0142 16.0837 61.6628L16.9098 59.6803L14.109 58.5134ZM17.7594 60.0343L17.0055 61.8438C16.8831 62.1375 16.8305 62.4264 16.8475 62.7105C16.8635 62.9972 16.9474 63.2537 17.0993 63.4801C17.2501 63.7091 17.4671 63.8826 17.7503 64.0006C18.1043 64.1481 18.456 64.15 18.8052 64.0062C19.157 63.8635 19.4444 63.5247 19.6672 62.9897L20.4343 61.1488L17.7594 60.0343Z" fill="white"/>
<path d="M8.50793 71.2251L17.0098 73.1957L15.8205 78.3267L14.9072 78.115L15.8579 74.0135L12.9852 73.3477L12.0961 77.1835L11.1828 76.9718L12.0719 73.136L9.18259 72.4663L8.21653 76.6342L7.30324 76.4225L8.50793 71.2251Z" fill="white"/>
<path d="M13.5769 85.9288L14.5127 85.9857L14.1153 92.5191L13.1795 92.4622L13.3462 89.7229L5.57075 89.25L5.63492 88.1951L13.4103 88.6681L13.5769 85.9288Z" fill="white"/>
<path d="M5.53573 101.247L5.41115 100.146L14.4434 102.349L14.5661 103.433L6.25446 107.599L6.12988 106.498L13.1366 103.08L13.129 103.013L5.53573 101.247ZM8.9692 101.27L9.47135 105.708L8.5398 105.813L8.03765 101.376L8.9692 101.27Z" fill="white"/>
<path d="M16.4381 128.42L15.5706 128.776L14.1229 125.243L14.9904 124.887L16.4381 128.42Z" fill="white"/>
<path d="M21.9618 146.954L28.8634 141.612L30.7309 144.025C31.103 144.506 31.3268 144.967 31.4022 145.408C31.4799 145.847 31.4386 146.251 31.2783 146.619C31.1202 146.986 30.8726 147.3 30.5356 147.561C30.2391 147.79 29.9534 147.927 29.6784 147.971C29.4052 148.017 29.1464 147.998 28.9019 147.914C28.6592 147.833 28.4343 147.714 28.2274 147.558L28.16 147.61C28.31 147.832 28.4001 148.102 28.4305 148.419C28.4609 148.737 28.406 149.065 28.2656 149.404C28.1253 149.742 27.8731 150.052 27.5092 150.334C27.1632 150.602 26.7912 150.764 26.3931 150.821C25.9951 150.877 25.5839 150.799 25.1596 150.584C24.7353 150.37 24.3127 149.992 23.8919 149.448L21.9618 146.954ZM23.35 147.216L24.6333 148.874C25.0558 149.42 25.4614 149.726 25.8499 149.792C26.2424 149.858 26.5903 149.773 26.8936 149.539C27.1273 149.358 27.2969 149.131 27.4024 148.859C27.5102 148.586 27.5384 148.292 27.4871 147.98C27.438 147.666 27.297 147.359 27.064 147.057L25.7494 145.359L23.35 147.216ZM26.4773 144.796L27.6771 146.346C27.8719 146.597 28.0969 146.786 28.3523 146.912C28.6093 147.04 28.8738 147.094 29.1457 147.074C29.4193 147.056 29.6775 146.953 29.9201 146.765C30.2234 146.531 30.3989 146.226 30.4466 145.851C30.4966 145.475 30.3442 145.057 29.9895 144.599L28.7689 143.022L26.4773 144.796Z" fill="white"/>
<path d="M31.628 158.371L37.5456 151.957L41.4169 155.528L40.7812 156.217L37.6867 153.362L35.6872 155.53L38.5813 158.199L37.9456 158.889L35.0515 156.219L33.0405 158.399L36.1851 161.3L35.5494 161.989L31.628 158.371Z" fill="white"/>
<path d="M46.9145 161.238L47.4268 160.453L52.9086 164.029L52.3963 164.814L50.0979 163.315L45.8413 169.839L44.9562 169.261L49.2128 162.737L46.9145 161.238Z" fill="white"/>
<path d="M56.2511 175.803L55.2327 175.367L61.6145 168.606L62.6173 169.035L62.1269 178.319L61.1084 177.883L61.6036 170.103L61.541 170.076L56.2511 175.803ZM57.9694 172.83L62.0746 174.588L61.7055 175.45L57.6003 173.692L57.9694 172.83Z" fill="white"/>
<path d="M85.2601 179.767L85.14 180.696L81.3533 180.207L81.4734 179.277L85.2601 179.767Z" fill="white"/>
<path d="M104.1 184.132L102.871 175.492L105.892 175.062C106.494 174.977 107.005 175.01 107.426 175.163C107.846 175.312 108.176 175.548 108.417 175.869C108.658 176.188 108.808 176.559 108.868 176.98C108.921 177.352 108.898 177.668 108.801 177.928C108.706 178.189 108.561 178.404 108.367 178.575C108.177 178.746 107.962 178.883 107.724 178.985L107.736 179.07C108.003 179.049 108.282 179.104 108.573 179.235C108.864 179.366 109.122 179.576 109.347 179.865C109.572 180.154 109.717 180.527 109.782 180.983C109.843 181.416 109.8 181.819 109.653 182.193C109.505 182.567 109.233 182.886 108.837 183.149C108.441 183.411 107.903 183.591 107.222 183.688L104.1 184.132ZM105.015 183.055L107.09 182.76C107.774 182.663 108.24 182.462 108.49 182.156C108.741 181.848 108.84 181.504 108.786 181.124C108.744 180.832 108.631 180.572 108.447 180.346C108.263 180.117 108.022 179.947 107.725 179.838C107.428 179.725 107.091 179.695 106.714 179.749L104.587 180.051L105.015 183.055ZM104.458 179.14L106.398 178.864C106.713 178.819 106.989 178.717 107.224 178.557C107.463 178.397 107.64 178.194 107.757 177.948C107.877 177.701 107.916 177.426 107.872 177.122C107.818 176.742 107.64 176.439 107.338 176.212C107.036 175.983 106.598 175.909 106.024 175.99L104.05 176.271L104.458 179.14Z" fill="white"/>
<path d="M118.804 181.378L116.156 173.062L121.174 171.464L121.459 172.357L117.447 173.635L118.342 176.444L122.094 175.25L122.378 176.143L118.627 177.338L119.527 180.164L123.603 178.865L123.888 179.759L118.804 181.378Z" fill="white"/>
<path d="M128.856 169.51L128.427 168.676L134.247 165.681L134.676 166.514L132.236 167.77L135.801 174.696L134.861 175.18L131.296 168.254L128.856 169.51Z" fill="white"/>
<path d="M146.133 168.598L145.25 169.268L142.53 160.378L143.399 159.718L151.226 164.736L150.343 165.406L143.826 161.128L143.772 161.169L146.133 168.598ZM144.399 165.635L147.957 162.937L148.524 163.684L144.965 166.382L144.399 165.635Z" fill="white"/>
<path d="M163.925 145.346L164.674 145.911L162.376 148.96L161.627 148.395L163.925 145.346Z" fill="white"/>
<path d="M177.038 131.131L168.92 127.926L170.041 125.088C170.264 124.522 170.546 124.095 170.886 123.804C171.224 123.513 171.592 123.343 171.991 123.292C172.387 123.241 172.783 123.293 173.18 123.45C173.528 123.588 173.792 123.764 173.97 123.977C174.149 124.189 174.265 124.421 174.318 124.674C174.372 124.924 174.385 125.178 174.356 125.436L174.436 125.467C174.55 125.225 174.735 125.01 174.993 124.821C175.251 124.633 175.561 124.512 175.924 124.46C176.286 124.408 176.682 124.466 177.11 124.635C177.517 124.796 177.846 125.033 178.098 125.346C178.35 125.659 178.493 126.053 178.525 126.527C178.558 127.001 178.448 127.558 178.196 128.198L177.038 131.131ZM176.554 129.803L177.324 127.853C177.577 127.211 177.633 126.706 177.491 126.339C177.347 125.968 177.097 125.711 176.74 125.571C176.466 125.462 176.184 125.432 175.897 125.48C175.606 125.527 175.34 125.653 175.097 125.857C174.852 126.059 174.66 126.337 174.52 126.692L173.732 128.689L176.554 129.803ZM172.875 128.351L173.595 126.528C173.712 126.232 173.759 125.942 173.737 125.658C173.716 125.372 173.627 125.117 173.471 124.894C173.316 124.667 173.096 124.498 172.81 124.385C172.453 124.245 172.102 124.249 171.755 124.4C171.406 124.549 171.125 124.893 170.913 125.432L170.18 127.287L172.875 128.351Z" fill="white"/>
<path d="M181.916 116.989L173.378 115.178L174.471 110.026L175.388 110.22L174.515 114.339L177.399 114.951L178.216 111.099L179.134 111.293L178.316 115.145L181.218 115.761L182.106 111.575L183.023 111.77L181.916 116.989Z" fill="white"/>
<path d="M176.572 102.383L175.635 102.343L175.91 95.8038L176.847 95.8432L176.732 98.5851L184.515 98.9123L184.47 99.9682L176.687 99.641L176.572 102.383Z" fill="white"/>
<path d="M184.325 86.9165L184.47 88.0149L175.398 85.9816L175.255 84.9001L183.487 80.5796L183.633 81.678L176.691 85.2261L176.7 85.2937L184.325 86.9165ZM180.892 86.9577L180.306 82.5303L181.236 82.4074L181.821 86.8348L180.892 86.9577Z" fill="white"/>
<path d="M172.916 59.9526L173.776 59.5809L175.29 63.0863L174.429 63.4579L172.916 59.9526Z" fill="white"/>
</svg>
