<svg width="1867" height="878" viewBox="0 0 1867 878" fill="none" xmlns="http://www.w3.org/2000/svg">
<path d="M126.141 0C277.127 0 325.602 114.329 481.754 114.329C637.905 114.329 715.783 0 885.642 0C1055.5 0 1106.76 114.329 1295.89 114.329C1485.02 114.329 1562.9 0 1728.19 0C1893.48 0 1865.12 476.5 1865.12 476.5H2.32098C2.32098 476.5 -24.8457 0 126.141 0Z" fill="black"/>
<path d="M126.141 877.5C277.127 877.5 325.602 763.171 481.754 763.171C637.905 763.171 715.783 877.5 885.642 877.5C1055.5 877.5 1106.76 763.171 1295.89 763.171C1485.02 763.171 1562.9 877.5 1728.19 877.5C1893.48 877.5 1865.12 401 1865.12 401H2.32098C2.32098 401 -24.8457 877.5 126.141 877.5Z" fill="black"/>
</svg>
