<svg width="121" height="66" viewBox="0 0 121 66" fill="none" xmlns="http://www.w3.org/2000/svg">
<path d="M5.10208e-07 10.5217L1.42959e-06 0C0.626263 1.27536 15.0303 19.1812 62 19.1812C62 19.5 62 21.3623 62 22C23.4848 22 9.70707 14.9855 5.10208e-07 10.5217Z" fill="white"/>
<path d="M121 10.5217L121 0C120.374 1.27536 105.97 19.1812 59 19.1812C59 19.5 59 21.3623 59 22C97.5152 22 111.293 14.9855 121 10.5217Z" fill="white"/>
<path d="M5.10208e-07 55.4783L1.42959e-06 66C0.626263 64.7246 15.0303 46.8188 62 46.8188C62 46.5 62 44.6377 62 44C23.4848 44 9.70707 51.0145 5.10208e-07 55.4783Z" fill="white"/>
<path d="M121 55.4783L121 66C120.374 64.7246 105.97 46.8188 59 46.8188C59 46.5 59 44.6377 59 44C97.5152 44 111.293 51.0145 121 55.4783Z" fill="white"/>
<path d="M121 37V29C121 29 101.313 31.5 60.6563 31.5C20 31.5 0 29 0 29V37C0 37 20 34.5 60.6563 34.5C101.313 34.5 121 37 121 37Z" fill="white"/>
</svg>
