<svg width="15" height="15" viewBox="0 0 15 15" fill="none" xmlns="http://www.w3.org/2000/svg">
<path fill-rule="evenodd" clip-rule="evenodd" d="M3.60364 11.3965C1.45171 9.24458 1.45171 5.75562 3.60364 3.60369C5.75557 1.45176 9.24453 1.45176 11.3965 3.60369C13.5484 5.75562 13.5484 9.24458 11.3965 11.3965C9.24453 13.5484 5.75557 13.5484 3.60364 11.3965ZM2.89653 2.89658C0.354081 5.43903 0.354081 9.56116 2.89653 12.1036C5.32 14.5271 9.17874 14.6405 11.7365 12.4439L13.8642 14.5715C14.0595 14.7668 14.376 14.7668 14.5713 14.5715C14.7666 14.3763 14.7666 14.0597 14.5713 13.8644L12.4437 11.7368C14.6405 9.17898 14.5271 5.3201 12.1036 2.89658C9.56112 0.354128 5.43899 0.354128 2.89653 2.89658Z" fill="white" fill-opacity="0.22"/>
</svg>
