<svg width="722" height="165" viewBox="0 0 722 165" fill="none" xmlns="http://www.w3.org/2000/svg">
<path fill-rule="evenodd" clip-rule="evenodd" d="M94.9732 0C96.8079 0 223.391 0.0103516 361 0.0312994V0.0288228C491.261 0.00956235 611.892 5.14092e-05 627.027 5.27323e-05C661.28 5.57269e-05 682.149 0.148892 702 20.0001C721.851 39.8512 722 72 722 82.5001C722 93.0001 721.848 126.152 702.5 145.5C683.152 164.848 658.593 165 627.027 165C625.192 165 498.609 164.99 361 164.969V164.971C230.739 164.99 110.108 165 94.9732 165C60.7198 165 39.851 164.851 19.9998 145C0.148586 125.149 0 93 0 82.4999C0 71.9999 0.152266 38.8477 19.5 19.4999C38.8477 0.152117 63.4065 0 94.9732 0Z" fill="#D9D9D9"/>
</svg>
