<svg width="82" height="82" viewBox="0 0 82 82" fill="none" xmlns="http://www.w3.org/2000/svg">
<path d="M40.9379 25C40.9379 25 40.9379 67 50.8972 81.25C40.9379 79 40.9379 79 30.9786 81.25C40.9379 67 40.9379 25 40.9379 25Z" fill="white"/>
<path d="M40.9379 56.25C40.9379 56.25 40.9379 14.25 30.9786 -1.74134e-06C40.9379 2.25 40.9379 2.25 50.8972 0C40.9379 14.25 40.9379 56.25 40.9379 56.25Z" fill="white"/>
<path d="M56.563 40.625C56.563 40.625 14.563 40.625 0.312987 50.5843C2.56299 40.625 2.56299 40.625 0.312988 30.6657C14.563 40.625 56.563 40.625 56.563 40.625Z" fill="white"/>
<path d="M25.313 40.625C25.313 40.625 67.313 40.625 81.563 30.6657C79.313 40.625 79.313 40.625 81.563 50.5843C67.313 40.625 25.313 40.625 25.313 40.625Z" fill="white"/>
<path d="M51.9866 51.6736C51.9866 51.6736 22.2882 21.9751 5.16961 18.9411C13.8029 13.4898 13.8029 13.4898 19.2542 4.85653C22.2882 21.9751 51.9866 51.6736 51.9866 51.6736Z" fill="white"/>
<path d="M29.8895 29.5765C29.8895 29.5765 59.5879 59.275 76.7065 62.309C68.0732 67.7603 68.0732 67.7603 62.6219 76.3935C59.5879 59.275 29.8895 29.5765 29.8895 29.5765Z" fill="white"/>
<path d="M29.8895 51.6736C29.8895 51.6736 59.588 21.9751 62.6219 4.85656C68.0732 13.4898 68.0732 13.4898 76.7065 18.9411C59.588 21.9751 29.8895 51.6736 29.8895 51.6736Z" fill="white"/>
<path d="M51.9866 29.5765C51.9866 29.5765 22.2881 59.275 19.2541 76.3936C13.8029 67.7603 13.8029 67.7603 5.16958 62.309C22.2881 59.275 51.9866 29.5765 51.9866 29.5765Z" fill="white"/>
</svg>
