<svg width="287" height="82" viewBox="0 0 287 82" fill="none" xmlns="http://www.w3.org/2000/svg">
<path d="M0.99998 51.5838C23.9134 52.1772 38.632 31.0393 58.9514 31.5656C79.2709 32.0919 94.135 37.5078 115.173 38.0527C136.211 38.5976 151.021 16.2714 172.205 16.8201C193.39 17.3688 205.567 25.9536 227.616 26.5246C249.665 27.0957 266.978 6.85437 286 7.34706" stroke="#CBCBCB"/>
<path d="M0.99998 62.8281C23.9134 63.4215 38.632 42.2836 58.9514 42.8099C79.2709 43.3362 94.135 48.7521 115.173 49.297C136.211 49.8419 151.021 27.5157 172.205 28.0644C193.39 28.6131 205.567 37.1979 227.616 37.7689C249.665 38.34 266.978 18.0987 286 18.5914" stroke="#CBCBCB"/>
<path d="M0.99998 74.0724C23.9134 74.6658 38.632 53.5279 58.9514 54.0542C79.2709 54.5805 94.135 59.9964 115.173 60.5413C136.211 61.0862 151.021 38.76 172.205 39.3087C193.39 39.8574 205.567 48.4422 227.616 49.0133C249.665 49.5843 266.978 29.343 286 29.8357" stroke="#CBCBCB"/>
</svg>
